<svg width="118" height="32" viewBox="0 0 118 32" fill="none" xmlns="http://www.w3.org/2000/svg">
<path d="M23.6554 5.61174L26.535 3.4371L25.2947 1.86673L22.2756 4.14915L23.1129 0.427231L21.1356 0L17.5819 15.7864H4.37139V14.3142H3.27854V12.8343H2.18373V11.3524H0.176905V13.3173H1.27172V14.7991H2.36457V16.281H3.53603L0 32H5.55662L7.38655 23.8768H8.79585L6.96592 32H12.5225L14.3525 23.8768H15.7618L13.9318 32H19.4904L21.3184 23.8768H22.7277L20.8978 32H26.4563L30.1123 15.7517H39.2069L41.4889 5.60981H23.6535L23.6554 5.61174ZM10.897 30.0178H9.48773L10.8695 23.8768H12.2788L10.897 30.0178ZM5.75907 21.8927L3.92914 30.0178H2.52181L5.2775 17.7724H17.1357L16.2099 21.8927H5.75907ZM37.5794 13.7695L28.6126 13.7792V13.4693H26.8023V12.6283H25.1119V11.7873H23.1031V13.7522H24.7955V14.5932H26.4858V15.4342H28.1113L24.8289 30.0178H23.4196L25.2495 21.8927H19.6929L17.8629 30.0178H16.4536L21.4972 7.59586H35.2148L34.4208 11.1273H38.171L37.5774 13.7715L37.5794 13.7695Z" fill="#30AB32"/>
<path d="M25.4531 11.0378H28.0142L28.5646 8.59375H26.0035L25.4531 11.0378Z" fill="#30AB32"/>
<path d="M45.9801 11.6913V15.752H43.9045V19.8126H41.8308V23.8732L39.2383 31.9964H43.932L45.1133 27.9358H53.7893L54.9371 31.9964H59.6899L53.3234 11.6875H45.9782L45.9801 11.6913ZM45.9801 23.879V19.8184H48.0538V15.7577H50.2356L52.6237 23.8828H45.9821L45.9801 23.879Z" fill="#231F20"/>
<path d="M87.8482 11.6894H80.9648V31.9983H88.1666C95.1365 31.9983 98.3639 28.1321 98.3639 21.7871C98.3639 15.4421 94.82 11.6875 87.8482 11.6875V11.6894ZM87.4453 27.9377H85.5721V15.7808H87.3588C90.7592 15.7808 93.6682 16.5718 93.6682 21.7601C93.6682 26.4693 91.3626 27.9377 87.4453 27.9377Z" fill="#231F20"/>
<path d="M68.4146 11.6894H61.5312V31.9983H68.733C75.7029 31.9983 78.9303 28.1321 78.9303 21.7871C78.9303 15.4421 75.3864 11.6875 68.4146 11.6875V11.6894ZM68.0117 27.9377H66.1385V15.7808H67.9252C71.3256 15.7808 74.2346 16.5718 74.2346 21.7601C74.2346 26.4693 71.929 27.9377 68.0117 27.9377Z" fill="#231F20"/>
<path d="M112.478 11.6894V15.75H109.813V19.8107H107.201C106.295 18.2268 102.364 12.1821 102.085 11.6875H97.043L104.591 23.7308V31.9964H109.229V23.8732H111.299V19.8107H113.962V15.75H116.628V11.6894H112.478Z" fill="#231F20"/>
</svg>
